<?xml version="1.0" encoding="UTF-8"?>
<svg width="24" height="24" viewBox="0 0 24 24" fill="none" xmlns="http://www.w3.org/2000/svg">
  <circle cx="12" cy="12" r="10" fill="#1976d2"/>
  <path d="M6 8c0-1.1.9-2 2-2h8c1.1 0 2 .9 2 2v8c0 1.1-.9 2-2 2H8c-1.1 0-2-.9-2-2V8z" fill="white"/>
  <path d="M8 8v8h8V8H8zm2 2h4v1H10v-1zm0 2h4v1H10v-1zm0 2h2v1h-2v-1z" fill="#1976d2"/>
  <circle cx="16" cy="8" r="2" fill="white"/>
  <text x="16" y="10" text-anchor="middle" font-family="Arial, sans-serif" font-size="2.5" font-weight="bold" fill="#1976d2">i</text>
</svg> 